<?xml version="1.0" encoding="UTF-8" standalone="no"?>
<!-- Created with Inkscape (http://www.inkscape.org/) -->

<svg
   xmlns:dc="http://purl.org/dc/elements/1.1/"
   xmlns:cc="http://creativecommons.org/ns#"
   xmlns:rdf="http://www.w3.org/1999/02/22-rdf-syntax-ns#"
   xmlns:svg="http://www.w3.org/2000/svg"
   xmlns="http://www.w3.org/2000/svg"
   xmlns:sodipodi="http://sodipodi.sourceforge.net/DTD/sodipodi-0.dtd"
   xmlns:inkscape="http://www.inkscape.org/namespaces/inkscape"
   width="744.09448819"
   height="1052.3622047"
   id="svg4076"
   version="1.1"
   inkscape:version="0.48.2 r9819"
   sodipodi:docname="stego2.svg"
   inkscape:export-filename="/media/SpinningPlatters/ggissel/stego2_476x500png.png"
   inkscape:export-xdpi="63.954521"
   inkscape:export-ydpi="63.954521">
  <defs
     id="defs4078" />
  <sodipodi:namedview
     id="base"
     pagecolor="#ffffff"
     bordercolor="#666666"
     borderopacity="1.0"
     inkscape:pageopacity="0.0"
     inkscape:pageshadow="2"
     inkscape:zoom="1"
     inkscape:cx="519.05218"
     inkscape:cy="550.82508"
     inkscape:document-units="px"
     inkscape:current-layer="layer11"
     showgrid="false"
     inkscape:window-width="1920"
     inkscape:window-height="1026"
     inkscape:window-x="0"
     inkscape:window-y="25"
     inkscape:window-maximized="1" />
  <metadata
     id="metadata4081">
    <rdf:RDF>
      <cc:Work
         rdf:about="">
        <dc:format>image/svg+xml</dc:format>
        <dc:type
           rdf:resource="http://purl.org/dc/dcmitype/StillImage" />
        <dc:title></dc:title>
      </cc:Work>
    </rdf:RDF>
  </metadata>
  <g
     inkscape:groupmode="layer"
     id="layer6"
     inkscape:label="Spikes"
     sodipodi:insensitive="true">
    <path
       style="fill:#edef5b;fill-opacity:1;stroke:#000000;stroke-width:3;stroke-linecap:butt;stroke-linejoin:miter;stroke-miterlimit:4;stroke-opacity:1;stroke-dasharray:none"
       d="m 421.48615,243.48253 -1.26269,-56.82108 119.198,-10.10152 -20.20305,106.06601 -60.60916,10.10153"
       id="path4617"
       inkscape:connector-curvature="0"
       sodipodi:nodetypes="ccccc" />
    <path
       style="fill:#edef5b;fill-opacity:1;stroke:#000000;stroke-width:3;stroke-linecap:butt;stroke-linejoin:miter;stroke-miterlimit:4;stroke-opacity:1;stroke-dasharray:none"
       d="m 486.13591,381.36835 29.04189,-50.25509 94.95434,26.26398 -60.60915,73.74112 -56.06347,-16.41497"
       id="path4619"
       inkscape:connector-curvature="0"
       sodipodi:nodetypes="ccccc" />
    <path
       style="fill:#edef5b;fill-opacity:1;stroke:#000000;stroke-width:3;stroke-linecap:butt;stroke-linejoin:miter;stroke-miterlimit:4;stroke-opacity:1;stroke-dasharray:none"
       d="m 511.8948,506.62727 30.55711,-35.1028 78.79191,33.33504 -62.62946,50.50762 -41.66879,-19.1929"
       id="path4621"
       inkscape:connector-curvature="0"
       sodipodi:nodetypes="ccccc" />
    <path
       style="fill:#edef5b;fill-opacity:1;stroke:#000000;stroke-width:3;stroke-linecap:butt;stroke-linejoin:miter;stroke-miterlimit:4;stroke-opacity:1;stroke-dasharray:none"
       d="m 541.18922,649.56385 6.31346,-32.57741 48.9924,-3.78808 -8.5863,48.23479 -34.34519,8.08122"
       id="path4623"
       inkscape:connector-curvature="0"
       sodipodi:nodetypes="ccccc" />
    <path
       style="fill:#edef5b;fill-opacity:1;stroke:#000000;stroke-width:3;stroke-linecap:butt;stroke-linejoin:miter;stroke-miterlimit:4;stroke-opacity:1;stroke-dasharray:none"
       d="m 597.00015,716.99154 1.01016,-27.27412 40.4061,-20.20305 4.04061,45.45687 -20.20305,17.17259"
       id="path4625"
       inkscape:connector-curvature="0"
       sodipodi:nodetypes="ccccc" />
    <path
       style="fill:#edef5b;fill-opacity:1;stroke:#000000;stroke-width:3;stroke-linecap:butt;stroke-linejoin:miter;stroke-miterlimit:4;stroke-opacity:1;stroke-dasharray:none"
       d="m 679.83266,759.41794 -6.06091,-23.23351 34.34518,-24.24366 13.13199,39.39596 -18.18274,15.15228"
       id="path4627"
       inkscape:connector-curvature="0"
       sodipodi:nodetypes="ccccc" />
  </g>
  <g
     inkscape:groupmode="layer"
     id="layer9"
     inkscape:label="lower leg"
     sodipodi:insensitive="true">
    <path
       style="fill:#79c87c;fill-opacity:1;stroke:#000000;stroke-width:4;stroke-linecap:butt;stroke-linejoin:miter;stroke-miterlimit:4;stroke-opacity:1;stroke-dasharray:none"
       d="m 207.34304,711.32036 c 1.12864,-9.56143 0.33803,-24.04281 15.96749,-37.74881 m -0.50509,0.50509 c 4.48076,-3.49313 10.44344,-5.55064 15.99998,-4.98036 3.78034,0.38797 6.29655,0.0141 11.92215,2.18449 13.39033,5.16598 16.51503,11.52576 22.9401,22.29078 5.47949,9.18076 5.09977,15.63691 4.58426,23.65063 -0.3605,5.60412 -0.78471,7.61099 -5.29855,15.99224 -6.43888,11.95562 -17.86708,22.98362 -32.50001,19.64286 -4.13471,-0.2206 -2.94656,-1.05288 -13.25761,-2.44924 -13.44121,21.38987 -28.26178,28.72992 -36.02811,46.73495 -2.52888,7.18619 -3.03745,10.89506 -6.07141,19.28572 -1.30713,5.17384 -5.79794,11.51622 -9.94402,9.24438 -14.8239,-6.06467 -25.88454,-9.2231 -43.98455,-25.31585 -4.34872,-4.92548 -9.77831,-9.83625 -12.50001,-23.21429 1.54781,-8.50489 6.42478,-23.75029 12.85716,-18.2143 l 10.71428,20 c 10.10276,17.04051 19.97824,23.61362 27.14286,10.00001 l 31.86865,-48.23595 c 4.13916,-6.26496 5.42067,-18.39019 6.09246,-29.37238"
       id="path4630-1"
       inkscape:connector-curvature="0"
       sodipodi:nodetypes="cccsssasccccccccccsc" />
  </g>
  <g
     inkscape:label="body"
     inkscape:groupmode="layer"
     id="layer1"
     style="display:inline"
     sodipodi:insensitive="true">
    <path
       style="fill:#79c87c;fill-opacity:1;stroke:#000000;stroke-width:5;stroke-linecap:butt;stroke-linejoin:miter;stroke-miterlimit:4;stroke-opacity:1;stroke-dasharray:none"
       d="m 176.42857,307.36218 c -6.39547,-10.41698 -5.83102,-34.29302 5,-50.71428 3.62395,-8.0029 22.63335,-26.37255 60,-38.57143 25.31089,-8.01565 27.96337,-9.12461 68.57144,-12.14286 27.42195,-2.34786 71.27142,4.77382 88.57142,19.28572 39.65094,31.9325 57.51918,55.56068 70,95.71428 28.36343,100.82054 49.61546,197.77014 53.70884,281.93365 -1.06878,67.90204 19.41263,119.01613 -46.66405,162.93944 -33.18071,21.89067 -208.63287,61.60009 -281.33051,5.8412 C 149.25229,740.4293 122.47768,670.67 110,603.79075 c -7.9444,-38.79917 3.37202,-87.96955 20,-140 9.20649,-30.81564 32.33505,-52.62574 62.47462,-77.35206 22.10022,-19.32162 45.17767,-26.31154 54.42313,-31.04605 13.03402,-6.05348 8.84322,-11.54215 -4.04061,-15.8876 -35.33329,-12.84579 -59.75567,-20.75197 -66.42857,-32.14286 z"
       id="path4084"
       inkscape:connector-curvature="0"
       sodipodi:nodetypes="ccccccccccccccc" />
  </g>
  <g
     inkscape:groupmode="layer"
     id="layer7"
     inkscape:label="tail"
     style="display:inline"
     sodipodi:insensitive="true">
    <path
       style="fill:#79c87c;fill-opacity:1;stroke:#000000;stroke-width:5;stroke-linecap:butt;stroke-linejoin:miter;stroke-miterlimit:4;stroke-opacity:1;stroke-dasharray:none"
       d="m 522.75394,609.41029 c 18.21597,53.3078 37.50001,73.26306 60.10408,94.44926 20.97687,20.82818 63.11072,40.56256 84.85281,51.51778 17.41278,8.47779 41.86871,14.52623 64.64977,17.1726 17.18792,3.33097 12.67584,18.38661 0,23.23351 -9.86683,3.00054 -22.39056,4.71372 -72.73099,2.52537 -40.54831,-2.33807 -53.51713,-7.05637 -78.28682,-11.11167 -36.879,-5.59792 -71.19651,-13.02547 -99.50003,-24.74873 0,0 19.91832,-18.16354 27.27412,-29.29443 5.48513,-8.30018 9.50125,-17.67661 12.12183,-27.27412 2.32132,-8.50152 2.65025,-17.45943 3.03046,-26.26397 0.50865,-11.77894 -0.75636,-23.56815 -1.01015,-35.35534 -0.25009,-11.61528 -0.50508,-34.85026 -0.50508,-34.85026 z"
       id="path4615"
       inkscape:connector-curvature="0"
       sodipodi:nodetypes="ccccccccssssc" />
  </g>
  <g
     inkscape:groupmode="layer"
     id="layer8"
     inkscape:label="upper leg and arm"
     sodipodi:insensitive="true">
    <path
       style="fill:#79c87c;fill-opacity:1;stroke:#000000;stroke-width:4;stroke-linecap:butt;stroke-linejoin:miter;stroke-miterlimit:4;stroke-opacity:1;stroke-dasharray:none"
       d="m 303.64693,787.82022 c -9.56144,-1.12863 -24.04283,-0.33803 -37.74882,-15.96747 m 0.50508,0.50508 c -3.49313,-4.48077 -5.55063,-10.44345 -4.98036,-15.99999 0.38798,-3.78033 0.0141,-6.29654 2.18449,-11.92215 5.16599,-13.39032 11.52577,-16.51502 22.29079,-22.94009 9.18075,-5.4795 15.63691,-5.09977 23.65062,-4.58426 5.60413,0.3605 7.611,0.78471 15.99224,5.29855 11.95562,6.43887 22.98362,17.86707 19.64286,32.5 -0.2206,4.13472 -1.05288,2.94658 -2.44924,13.25761 21.38988,13.44122 28.72992,28.26179 46.73495,36.02811 7.18619,2.52888 10.89507,3.03746 19.28572,6.07142 5.17384,1.30713 11.51623,5.79793 9.24439,9.94401 -6.06467,14.82389 -9.22311,25.88453 -25.31582,43.98456 -4.92547,4.34872 -9.83624,9.77832 -23.21429,12.50001 -8.50487,-1.5478 -23.75027,-6.42477 -18.21429,-12.85715 l 20,-10.71428 c 17.0405,-10.10276 23.61363,-19.97824 10,-27.14286 L 333.0193,793.91267 c -6.26495,-4.13915 -18.39018,-5.42066 -29.37237,-6.09245"
       id="path4630"
       inkscape:connector-curvature="0"
       sodipodi:nodetypes="cccsssasccccccccccsc" />
    <path
       style="fill:#79c87c;fill-opacity:1;stroke:#000000;stroke-width:5;stroke-linecap:butt;stroke-linejoin:miter;stroke-miterlimit:4;stroke-opacity:1;stroke-dasharray:none"
       d="m 211.42857,459.50504 c -19.95363,2.87287 -31.7907,19.31215 -44.85878,30.82636 -1.76908,1.55872 -7.76789,4.15098 -13.3555,0.24507 -21.19048,-12.85714 -38.90645,-34.06132 -61.785718,-36.78572 -8.94234,0.31131 -14.262194,3.36241 -13.214286,13.57143 5.117332,13.45638 44.523804,32.7381 68.214284,44.28572 7.80543,2.54686 21.35897,4.93951 28.21429,1.78571 27.12116,-8.60933 59.85196,-23.64182 58.92857,-35.71429 0.48806,-14.25708 -13.15812,-19.11367 -22.14286,-18.21428 z"
       id="path4632"
       inkscape:connector-curvature="0"
       sodipodi:nodetypes="csccccccc" />
  </g>
  <g
     inkscape:groupmode="layer"
     id="layer10"
     inkscape:label="eye">
    <path
       sodipodi:type="arc"
       style="fill:#000000;fill-opacity:1;stroke:none"
       id="path4656"
       sodipodi:cx="254.28572"
       sodipodi:cy="247.00504"
       sodipodi:rx="5"
       sodipodi:ry="4.6428571"
       d="m 257.42952,243.39475 a 5,4.6428571 0 1 1 -0.005,-0.004"
       sodipodi:start="5.3923471"
       sodipodi:end="11.674212"
       sodipodi:open="true"
       transform="matrix(0.81,0,0,0.81,42.600001,50.502385)" />
  </g>
  <g
     inkscape:groupmode="layer"
     id="layer11"
     inkscape:label="Layer">
    <path
       style="fill:#ffffff;fill-opacity:1;stroke:#000000;stroke-width:2;stroke-linecap:butt;stroke-linejoin:miter;stroke-miterlimit:4;stroke-opacity:1;stroke-dasharray:none"
       d="m 300.52039,204.8442 c -19.17959,-0.5981 -30.83652,3.72145 -43.43657,7.07107 76.03399,38.2351 148.33619,81.67797 217.68788,125.25891 0,0 -4.81414,-18.70588 -8.08122,-27.77919 -2.29924,-6.38542 -8.08123,-18.68783 -8.08123,-18.68783 0,0 -12.25034,-4.04972 -18.18274,-6.56599 -17.60652,-7.46793 -34.64192,-16.25575 -51.51778,-25.25381 -15.44173,-8.23339 -30.63079,-16.96755 -45.45686,-26.26397 -14.47964,-9.0792 -42.93148,-27.77919 -42.93148,-27.77919 z"
       id="path4659"
       inkscape:connector-curvature="0"
       sodipodi:nodetypes="cccacsssc" />
    <path
       style="fill:#1a24d0;fill-opacity:1;stroke:#050544;stroke-width:1px;stroke-linecap:butt;stroke-linejoin:miter;stroke-opacity:1"
       d="m 290.10318,206.48569 c -7.29781,0.28681 -13.51004,1.70584 -19.82424,3.283 71.12199,35.44911 135.96794,74.83827 200.38901,116.98829 -1.92007,-8.50491 -5.1859,-17.14156 -8.9651,-25.82203 -12.13475,-3.85151 -83.10526,-30.87488 -171.59967,-94.44926 z"
       id="path4661"
       inkscape:connector-curvature="0"
       sodipodi:nodetypes="ccccc" />
    <path
       style="fill:#821010;fill-opacity:1;stroke:#821010;stroke-width:1px;stroke-linecap:butt;stroke-linejoin:miter;stroke-opacity:1"
       d="m 284.89365,207.56347 -7.21899,1.29332 c 65.12375,36.62228 127.12071,73.85617 190.78358,110.89226 l -3.74474,-9.26994 C 401.34014,277.73232 340.43513,246.89215 284.89365,207.56347 z"
       id="path4663"
       inkscape:connector-curvature="0"
       sodipodi:nodetypes="ccccc" />
  </g>
</svg>
