<?xml version="1.0" encoding="UTF-8" standalone="no"?>
<!-- Created with Inkscape (www.inkscape.org/) -->

<svg
   xmlns:dc="purl.org/dc/elements/1.1/"
   xmlns:cc="creativecommons.org/ns#"
   xmlns:rdf="www.w3.org/1999/02/22-rdf-syntax-ns#"
   xmlns:svg="www.w3.org/2000/svg"
   xmlns="www.w3.org/2000/svg"
   xmlns:sodipodi="sodipodi.sourceforge.net/DTD/sodipodi-0.dtd"
   xmlns:inkscape="www.inkscape.org/namespaces/inkscape"
   width="744.09448819"
   height="1052.3622047"
   id="svg2"
   version="1.1"
   inkscape:version="0.48.2 r9819"
   sodipodi:docname="stego.svg">
  <defs
     id="defs4" />
  <sodipodi:namedview
     id="base"
     pagecolor="#ffffff"
     bordercolor="#666666"
     borderopacity="1.0"
     inkscape:pageopacity="0.0"
     inkscape:pageshadow="2"
     inkscape:zoom="1"
     inkscape:cx="572.62876"
     inkscape:cy="563.15762"
     inkscape:document-units="px"
     inkscape:current-layer="layer5"
     showgrid="false"
     inkscape:window-width="1719"
     inkscape:window-height="999"
     inkscape:window-x="0"
     inkscape:window-y="25"
     inkscape:window-maximized="0" />
  <metadata
     id="metadata7">
    <rdf:RDF>
      <cc:Work
         rdf:about="">
        <dc:format>image/svg+xml</dc:format>
        <dc:type
           rdf:resource="purl.org/dc/dcmitype/StillImage" />
        <dc:title></dc:title>
      </cc:Work>
    </rdf:RDF>
  </metadata>
  <g
     inkscape:groupmode="layer"
     id="layer3"
     inkscape:label="Layer#1"
     style="display:inline">
    <path
       style="fill:#f2f966;fill-opacity:0.89952153;stroke:#000000;stroke-width:3;stroke-linecap:butt;stroke-linejoin:miter;stroke-miterlimit:4;stroke-opacity:1;stroke-dasharray:none;display:inline"
       d="m 359.93979,214.19397 -0.58579,-27.53553 35.34315,-8.46447 5.65685,32.46447 -25.12132,13.24264"
       id="path3833-7"
       inkscape:connector-curvature="0"
       sodipodi:nodetypes="ccccc" />
    <path
       style="fill:#f2f966;fill-opacity:0.89952153;stroke:#000000;stroke-width:3;stroke-linecap:butt;stroke-linejoin:miter;stroke-miterlimit:4;stroke-opacity:1;stroke-dasharray:none;display:inline"
       d="m 399.39276,260.17652 5,-24 43.46447,-5.70711 -4.46447,40.70711 -30.53553,11.82843"
       id="path3835-0"
       inkscape:connector-curvature="0"
       sodipodi:nodetypes="ccccc" />
    <path
       style="fill:#f2f966;fill-opacity:0.89952153;stroke:#000000;stroke-width:3;stroke-linecap:butt;stroke-linejoin:miter;stroke-miterlimit:4;stroke-opacity:1;stroke-dasharray:none;display:inline"
       d="m 449.22918,335.42348 5,-39 59.12132,-5.75736 -8.82843,58.36396 -36.29289,6.22183"
       id="path3837-0"
       inkscape:connector-curvature="0"
       sodipodi:nodetypes="ccccc" />
    <path
       style="fill:#f2f966;fill-opacity:0.89952153;stroke:#000000;stroke-width:3;stroke-linecap:butt;stroke-linejoin:miter;stroke-miterlimit:4;stroke-opacity:1;stroke-dasharray:none;display:inline"
       d="m 505.3217,409.94492 19.82842,-50.41421 87.53554,16.55635 -35.6066,81.77817 -53.51472,-8.02081"
       id="path3839-3"
       inkscape:connector-curvature="0"
       sodipodi:nodetypes="ccccc" />
    <path
       style="fill:#f2f966;fill-opacity:0.89952153;stroke:#000000;stroke-width:3;stroke-linecap:butt;stroke-linejoin:miter;stroke-miterlimit:4;stroke-opacity:1;stroke-dasharray:none;display:inline"
       d="m 541.35355,521.70228 35.97056,-33.63604 80.32233,38.52691 -64.79899,56.56497 -47.91548,-7.01346"
       id="path3841-1"
       inkscape:connector-curvature="0"
       sodipodi:nodetypes="ccccc" />
    <path
       style="fill:#f2f966;fill-opacity:0.89952153;stroke:#000000;stroke-width:3;stroke-linecap:butt;stroke-linejoin:miter;stroke-miterlimit:4;stroke-opacity:1;stroke-dasharray:none;display:inline"
       d="m 575.71446,649.65571 13.36396,-29.22183 55.70711,2.55635 -13.24264,55.36396 -36.05026,5.68629"
       id="path3843-5"
       inkscape:connector-curvature="0"
       sodipodi:nodetypes="ccccc" />
    <path
       style="fill:#f2f966;fill-opacity:0.89952153;stroke:#000000;stroke-width:3;stroke-linecap:butt;stroke-linejoin:miter;stroke-miterlimit:4;stroke-opacity:1;stroke-dasharray:none;display:inline"
       d="m 628.26104,731.65571 10.27817,-25.96447 43.94975,-1.80761 -12.48528,43.07107 -26.29289,5.13604"
       id="path3845-9"
       inkscape:connector-curvature="0"
       sodipodi:nodetypes="ccccc" />
    <path
       style="fill:#f2f966;fill-opacity:0.89952153;stroke:#000000;stroke-width:3;stroke-linecap:butt;stroke-linejoin:miter;stroke-miterlimit:4;stroke-opacity:1;stroke-dasharray:none;display:inline"
       d="m 679.77512,798.36218 2,-24 33,-2 0.94975,35 -22.94975,5"
       id="path3847-8"
       inkscape:connector-curvature="0"
       sodipodi:nodetypes="ccccc" />
    <path
       style="fill:none;stroke:#000000;stroke-width:5;stroke-linecap:butt;stroke-linejoin:miter;stroke-miterlimit:4;stroke-opacity:1;stroke-dasharray:none;display:inline"
       d="m 383.72604,235.27113 c 21.76412,45.2315 49.78611,83.91519 81.78316,118.14516"
       id="path3795-9"
       inkscape:connector-curvature="0"
       sodipodi:nodetypes="cc" />
    <path
       style="fill:#6ad975;fill-opacity:1;stroke:none"
       d="m 384.66609,234.59319 -120.20815,10.6066 16.26345,98.6414 182.08,8.13173 -42.42641,-52.3259 -18.38478,-30.40559 -8.83883,-16.26346 z"
       id="path4034"
       inkscape:connector-curvature="0" />
  </g>
  <g
     inkscape:label="Layer 1"
     inkscape:groupmode="layer"
     id="layer1"
     style="display:inline">
    <path
       sodipodi:type="arc"
       style="opacity:0;fill:#000000;fill-opacity:0;stroke:#ffffff;stroke-opacity:0"
       id="path2985"
       sodipodi:cx="337.14285"
       sodipodi:cy="668.07648"
       sodipodi:rx="177.14285"
       sodipodi:ry="280"
       d="m 514.28571,668.07648 a 177.14285,280 0 0 1 -0.009,2.76772 l -177.1342,-2.76772 z"
       sodipodi:start="0"
       sodipodi:end="0.0098848821" />
    <path
       sodipodi:type="arc"
       style="opacity:0;fill:#000000;fill-opacity:0;stroke:#ffffff;stroke-opacity:0"
       id="path2987"
       sodipodi:cx="355.71429"
       sodipodi:cy="569.50507"
       sodipodi:rx="207.14285"
       sodipodi:ry="291.42856"
       d="m 562.85715,569.50507 a 207.14285,291.42856 0 0 1 -0.0101,2.88069 l -207.13274,-2.88069 z"
       sodipodi:start="0"
       sodipodi:end="0.0098848821" />
    <path
       sodipodi:type="arc"
       style="opacity:0;fill:#000000;fill-opacity:0;stroke:#ffffff;stroke-opacity:0"
       id="path3757"
       sodipodi:cx="325"
       sodipodi:cy="526.64789"
       sodipodi:rx="203.57143"
       sodipodi:ry="284.28571"
       d="m 528.57143,526.64789 a 203.57143,284.28571 0 0 1 -0.01,2.81008 L 325,526.64789 z"
       sodipodi:start="0"
       sodipodi:end="0.0098848821" />
    <path
       style="fill:#6ad975;fill-opacity:1;stroke:#000000;stroke-width:3.71000004;stroke-linecap:butt;stroke-linejoin:miter;stroke-miterlimit:4;stroke-opacity:1;stroke-dasharray:none"
       d="m 542.30801,564.82615 c 19.97385,115.64915 183.76933,285.46035 183.76933,285.46035 12.58419,13.19983 22.62731,45.81679 -21.98528,33.38477 -8.40013,-2.03081 -18.92996,-4.83305 -29.0094,-8.02579 -83.72097,-26.51929 -180.6476,-50.11567 -221.16426,-78.95444"
       id="path3788"
       inkscape:connector-curvature="0"
       sodipodi:nodetypes="cccsc" />
    <path
       sodipodi:type="arc"
       style="fill:#6ad975;fill-opacity:1;stroke:#000000;stroke-width:4.80910683;stroke-miterlimit:4;stroke-opacity:1;stroke-dasharray:none"
       id="path3790"
       sodipodi:cx="303"
       sodipodi:cy="251.36218"
       sodipodi:rx="69"
       sodipodi:ry="52"
       d="m 268.23445,296.27937 a 69,52 0 1 1 99.11357,-63.68729"
       transform="matrix(1.0926697,0,0,1,-17.275431,2.9999999)"
       sodipodi:start="2.0988447"
       sodipodi:end="5.9138845"
       sodipodi:open="true" />
  </g>
  <g
     inkscape:groupmode="layer"
     id="layer2"
     inkscape:label="Layer"
     style="display:inline">
    <path
       sodipodi:type="arc"
       style="fill:#6ad975;fill-opacity:1;stroke:#000000;stroke-width:5.81268787;stroke-miterlimit:4;stroke-opacity:1;stroke-dasharray:none"
       id="path3759"
       sodipodi:cx="360.71429"
       sodipodi:cy="573.79077"
       sodipodi:rx="217.85715"
       sodipodi:ry="364.28571"
       d="M 497.69425,290.52255 A 217.85715,364.28571 0 1 1 305.46674,221.41342"
       transform="matrix(0.97098097,0,0,0.76508686,-19.246717,129.15147)"
       sodipodi:start="5.3923471"
       sodipodi:end="10.739179"
       sodipodi:open="true" />
    <path
       style="fill:none;stroke:#000000;stroke-width:5;stroke-linecap:butt;stroke-linejoin:miter;stroke-miterlimit:4;stroke-opacity:1;stroke-dasharray:none"
       d="m 383.88358,235.34855 c 21.76412,45.2315 49.78611,83.91519 81.78316,118.14516"
       id="path3795"
       inkscape:connector-curvature="0"
       sodipodi:nodetypes="cc" />
  </g>
  <g
     inkscape:groupmode="layer"
     id="layer5"
     inkscape:label="Layer#3">
    <path
       style="fill:#6ad975;fill-opacity:1;stroke:none;display:inline"
       d="m 407.0625,824.79968 -26,10.375 4.25,13.5 3.75,12.375 0,13 0,12.625 10.125,-1.75 26.75,-5.625 -5.75,-20.5 c 0,0 -8,-17.625 -8.25,-18.125 -0.25,-0.5 -4.875,-15.875 -4.875,-15.875 z"
       id="path4053"
       inkscape:connector-curvature="0"
       sodipodi:nodetypes="cccccccccsc" />
    <path
       sodipodi:type="arc"
       style="fill:#060606;fill-opacity:1;stroke:none"
       id="path4074"
       sodipodi:cx="287.08536"
       sodipodi:cy="231.23444"
       sodipodi:rx="2.8284271"
       sodipodi:ry="1.9776894"
       d="m 288.86376,229.69659 a 2.8284271,1.9776894 0 1 1 -0.003,-0.002"
       sodipodi:start="5.3923471"
       sodipodi:end="11.674212"
       sodipodi:open="true" />
  </g>
  <g
     inkscape:groupmode="layer"
     id="layer4"
     inkscape:label="Layer#2"
     style="display:inline">
    <path
       sodipodi:type="arc"
       style="fill:#6ad975;fill-opacity:1;stroke:#000000;stroke-width:4.72166491;stroke-miterlimit:4;stroke-opacity:1;stroke-dasharray:none"
       id="path4037"
       sodipodi:cx="323.85492"
       sodipodi:cy="702.3443"
       sodipodi:rx="51.618797"
       sodipodi:ry="53.740116"
       d="m 308.73013,753.72574 a 51.618797,53.740116 0 1 1 66.14526,-59.54006"
       sodipodi:start="1.8681692"
       sodipodi:end="6.1307799"
       sodipodi:open="true"
       transform="matrix(0.98573085,0,0,1.1376047,6.0353478,-57.401475)" />
    <path
       sodipodi:type="arc"
       style="fill:#6ad975;fill-opacity:1;stroke:#000000;stroke-width:4.51276207;stroke-miterlimit:4;stroke-opacity:1;stroke-dasharray:none"
       id="path4039"
       sodipodi:cx="400.22244"
       sodipodi:cy="881.24237"
       sodipodi:rx="19.79899"
       sodipodi:ry="14.142136"
       d="m 418.6482,876.0673 a 19.79899,14.142136 0 1 1 -38.21172,4.66209"
       sodipodi:start="5.9085502"
       sodipodi:end="9.4610592"
       sodipodi:open="true"
       transform="matrix(0.94316433,0,0,1.3015706,30.134427,-261.40515)" />
    <path
       style="fill:none;stroke:#000000;stroke-width:5;stroke-linecap:butt;stroke-linejoin:miter;stroke-miterlimit:4;stroke-opacity:1;stroke-dasharray:none"
       d="m 310.06632,799.92506 c 22.66451,6.88302 48.92344,10.59392 61.16474,26.16295 8.50011,8.55891 12.67394,18.55991 15.55635,28.99138 5.15056,15.50984 2.21131,22.59028 2.12131,31.1127"
       id="path4041"
       inkscape:connector-curvature="0"
       sodipodi:nodetypes="cccc" />
    <path
       style="fill:#6ad975;fill-opacity:1;stroke:#000000;stroke-width:5;stroke-linecap:butt;stroke-linejoin:miter;stroke-miterlimit:4;stroke-opacity:1;stroke-dasharray:none"
       d="m 375.4737,731.95443 c 4.41209,23.25749 11.02847,27.4416 22.62742,64.34671 4.2748,13.67073 11.06781,42.54426 18.38477,57.27566 5.07813,9.89949 7.24882,19.53382 9.54594,29.43331"
       id="path4043"
       inkscape:connector-curvature="0"
       sodipodi:nodetypes="cccc" />
    <path
       sodipodi:type="arc"
       style="fill:#6ad975;fill-opacity:1;stroke:#000000;stroke-width:4.04585886;stroke-miterlimit:4;stroke-opacity:1;stroke-dasharray:none"
       id="path4049"
       sodipodi:cx="181.72644"
       sodipodi:cy="837.75525"
       sodipodi:rx="12.020815"
       sodipodi:ry="11.667262"
       d="M 191.1294,845.02393 A 12.020815,11.667262 0 1 1 173.85452,828.93769"
       sodipodi:start="0.67256987"
       sodipodi:end="3.9983948"
       sodipodi:open="true"
       transform="matrix(1.1862414,0,0,1.2874948,-38.087623,-241.25871)" />
    <path
       style="fill:#6ad975;fill-opacity:1;stroke:#000000;stroke-width:5;stroke-linecap:butt;stroke-linejoin:miter;stroke-miterlimit:4;stroke-opacity:1;stroke-dasharray:none"
       d="m 167.84384,826.24833 c 3.64595,-2.7677 29.15782,-21.40587 32.54923,-39.1088 l 23.77082,22.09924 c -10.75305,11.75652 -35.21667,36.87398 -35.82165,37.76956"
       id="path4051"
       inkscape:connector-curvature="0"
       sodipodi:nodetypes="cccc" />
  </g>
</svg>
